<?xml version="1.0" encoding="utf-8"?>
<!-- Generator: Adobe Illustrator 17.0.2, SVG Export Plug-In . SVG Version: 6.00 Build 0)  -->
<!DOCTYPE svg PUBLIC "-//W3C//DTD SVG 1.1//EN" "http://www.w3.org/Graphics/SVG/1.1/DTD/svg11.dtd">
<svg version="1.1" id="Layer_1" xmlns:sketch="http://www.bohemiancoding.com/sketch/ns"
	 xmlns="http://www.w3.org/2000/svg" xmlns:xlink="http://www.w3.org/1999/xlink" x="0px" y="0px" width="128px" height="32px"
	 viewBox="0.5 0.5 128 32" enable-background="new 0.5 0.5 128 32" xml:space="preserve">
<g>
	<path id="path-1" fill="#FFFFFF" d="M10,16.412c3.478,0.029,6.289,2.858,6.289,6.343h2.719c0-4.987-4.028-9.032-9.008-9.062V16.412
		L10,16.412z M10,21.385c0.197,0.787,0.909,1.37,1.758,1.37c1.001,0,1.812-0.811,1.812-1.812s-0.811-1.812-1.812-1.812
		c-0.849,0-1.561,0.583-1.758,1.37V21.385L10,21.385z M10,10.975c6.481,0.029,11.726,5.292,11.726,11.78h2.719
		c0-7.661-5.941-13.933-13.466-14.463H10V10.975L10,10.975z"/>
</g>
<title>Slice 1</title>
<description>Created with Sketch (http://www.bohemiancoding.com/sketch)</description>
<g id="Page-1" sketch:type="MSPage">
	<g id="icons" transform="translate(1.000000, 0.000000)" sketch:type="MSLayerGroup">
		<g id="google-plus" transform="translate(95.000000, 1.000000)" sketch:type="MSShapeGroup">
			<path id="Shape" fill="#F67B23" d="M16.499,31.542c8.836,0,16-7.164,16-16s-7.163-16-16-16s-16,7.164-16,16
				S7.663,31.542,16.499,31.542"/>
			<g id="Clip-2">
				<path id="path-1_1_" fill="#FFFFFF" d="M10,16.412c3.478,0.029,6.289,2.858,6.289,6.343h2.719c0-4.987-4.028-9.032-9.008-9.062
					V16.412L10,16.412z M10,21.385c0.197,0.787,0.909,1.37,1.758,1.37c1.001,0,1.812-0.811,1.812-1.812s-0.811-1.812-1.812-1.812
					c-0.849,0-1.561,0.583-1.758,1.37V21.385L10,21.385z M10,10.975c6.481,0.029,11.726,5.292,11.726,11.78h2.719
					c0-7.661-5.941-13.933-13.466-14.463H10V10.975L10,10.975z"/>
			</g>
		</g>
		<g id="facebook" transform="translate(64.000000, 1.000000)" sketch:type="MSShapeGroup">
			<path id="Shape_1_" fill="#3E5B99" d="M15.501,31.542c8.836,0,16-7.163,16-16c0-8.836-7.164-16-16-16s-16,7.164-16,16
				C-0.499,24.379,6.664,31.542,15.501,31.542"/>
			<path id="Shape_2_" fill="#FFFFFF" d="M11.641,12.833h1.654v-1.608c0-0.708,0.018-1.802,0.533-2.479
				c0.542-0.717,1.287-1.204,2.568-1.204c2.087,0,2.965,0.298,2.965,0.298l-0.414,2.451c0,0-0.689-0.2-1.332-0.2
				c-0.644,0-1.22,0.231-1.22,0.874v1.869h2.638l-0.184,2.394h-2.454v8.314h-3.101v-8.315h-1.653V12.833L11.641,12.833z"/>
		</g>
		<g id="twitter" transform="translate(32.000000, 1.000000)" sketch:type="MSShapeGroup">
			<path id="Shape_3_" fill="#28AAE2" d="M15.501,31.542c8.837,0,16-7.163,16-16c0-8.836-7.163-16-16-16c-8.836,0-16,7.164-16,16
				C-0.499,24.379,6.665,31.542,15.501,31.542"/>
			<path id="Shape_4_" fill="#FFFFFF" d="M23.515,11.351c-0.59,0.261-1.224,0.438-1.889,0.518c0.68-0.407,1.202-1.051,1.446-1.818
				c-0.636,0.376-1.339,0.65-2.09,0.797c-0.598-0.639-1.453-1.038-2.399-1.038c-1.815,0-3.287,1.473-3.287,3.288
				c0,0.258,0.027,0.508,0.085,0.749c-2.732-0.137-5.155-1.445-6.778-3.436c-0.283,0.487-0.444,1.052-0.444,1.655
				c0,1.14,0.58,2.146,1.462,2.737c-0.538-0.017-1.045-0.166-1.49-0.411v0.041c0,1.594,1.134,2.922,2.639,3.224
				c-0.275,0.077-0.565,0.116-0.866,0.116c-0.212,0-0.418-0.02-0.618-0.059c0.418,1.306,1.632,2.257,3.071,2.282
				c-1.126,0.883-2.544,1.408-4.084,1.408c-0.265,0-0.527-0.015-0.784-0.045c1.455,0.932,3.184,1.477,5.04,1.477
				c6.05,0,9.355-5.009,9.355-9.355c0-0.143-0.003-0.285-0.009-0.425C22.517,12.589,23.076,12.01,23.515,11.351"/>
		</g>
		<g id="weibo" sketch:type="MSShapeGroup">
			<path id="Shape_5_" fill="#D2423C" d="M15.501,32.458c8.837,0,16-7.163,16-16c0-8.836-7.163-16-16-16c-8.836,0-16,7.164-16,16
				C-0.499,25.295,6.665,32.458,15.501,32.458"/>
			<path id="Shape_6_" fill="#FFFFFF" d="M22.698,11.247c-1.095-1.214-2.709-1.676-4.2-1.36h-0.001
				c-0.345,0.074-0.565,0.413-0.491,0.757c0.074,0.345,0.413,0.565,0.758,0.491c1.06-0.225,2.208,0.104,2.986,0.966
				c0.778,0.862,0.989,2.038,0.656,3.069l0,0c-0.109,0.336,0.075,0.695,0.411,0.804c0.335,0.108,0.695-0.075,0.803-0.41v-0.002
				C24.088,14.113,23.793,12.46,22.698,11.247"/>
			<path id="Shape_7_" fill="#FFFFFF" d="M21.017,12.764c-0.533-0.591-1.32-0.816-2.046-0.661c-0.297,0.063-0.486,0.355-0.422,0.652
				c0.063,0.296,0.355,0.486,0.652,0.421v0.001c0.355-0.075,0.74,0.034,1,0.323c0.261,0.289,0.331,0.683,0.219,1.028h0.001
				c-0.093,0.288,0.065,0.599,0.354,0.692c0.289,0.092,0.599-0.065,0.692-0.354C21.694,14.16,21.551,13.355,21.017,12.764"/>
			<path id="Shape_8_" fill="#D2423C" d="M8.392,19.077c0,1.941,2.527,3.515,5.645,3.515s5.645-1.574,5.645-3.515
				s-2.527-3.515-5.645-3.515C10.919,15.561,8.392,17.135,8.392,19.077"/>
			<g id="Group" transform="translate(7.000000, 12.000000)">
				<path id="Shape_9_" fill="#FFFFFF" d="M12.688,4.292c-0.235-0.07-0.396-0.118-0.273-0.427c0.266-0.669,0.294-1.247,0.005-1.659
					c-0.541-0.773-2.022-0.731-3.719-0.021c0-0.001-0.533,0.233-0.397-0.19C8.565,1.156,8.526,0.453,8.12,0.047
					C7.199-0.874,4.751,0.082,2.652,2.181C1.08,3.754,0.167,5.42,0.167,6.861c0,2.756,3.535,4.432,6.993,4.432
					c4.533,0,7.549-2.634,7.549-4.725C14.708,5.305,13.644,4.588,12.688,4.292L12.688,4.292z M7.169,10.305
					C4.41,10.577,2.028,9.33,1.849,7.518C1.67,5.707,3.762,4.017,6.521,3.745c2.76-0.273,5.142,0.974,5.32,2.785
					C12.02,8.343,9.928,10.032,7.169,10.305L7.169,10.305z"/>
				<path id="Shape_10_" fill="#FFFFFF" d="M7.444,5.139c-1.313-0.342-2.797,0.313-3.367,1.47c-0.581,1.18-0.019,2.49,1.307,2.918
					c1.374,0.443,2.994-0.236,3.557-1.51C9.497,6.772,8.803,5.49,7.444,5.139L7.444,5.139z M6.442,8.153
					C6.175,8.579,5.604,8.765,5.173,8.569C4.749,8.376,4.624,7.881,4.89,7.466c0.264-0.413,0.816-0.598,1.243-0.419
					C6.566,7.231,6.704,7.723,6.442,8.153L6.442,8.153z M7.321,7.024C7.225,7.189,7.011,7.268,6.844,7.2
					C6.68,7.132,6.628,6.948,6.722,6.786c0.096-0.161,0.301-0.24,0.465-0.175C7.353,6.671,7.413,6.858,7.321,7.024L7.321,7.024z"/>
			</g>
		</g>
	</g>
</g>
</svg>
